<?xml version="1.0" encoding="UTF-8"?>
<svg id="b"
    xmlns="http://www.w3.org/2000/svg" version="1.1" viewBox="0 0 72 72">
    <!-- Generator: Adobe Illustrator 29.3.1, SVG Export Plug-In . SVG Version: 2.1.0 Build 151)  -->
    <g id="c">
        <g id="d">
            <rect x="9" y="54.8" width="54" height="10.2" rx=".5" ry=".5" fill="rgba(0,0,0,0)"/>
            <path class="st1" d="M62.3,15.6l-10.1-9.7c-.5-.5-1.1-.7-1.7-.7h0c-.6,0-1.2.2-1.7.7l-28,26.7c-.5.4-.7,1.1-.7,1.6s.2,1.2.7,1.7l.9.8-12.5,11.9h16.8l4.2-3.9.9.8c.5.5,1.1.7,1.7.7.6,0,1.3-.2,1.7-.7l28-26.7c.5-.4.7-1.1.7-1.6s-.2-1.2-.7-1.7h0ZM45.7,28.5l-7.1-6.8,11.8-11.3,7.1,6.8-11.8,11.3Z"/>
        </g>
    </g>
</svg>
