<?xml version="1.0" encoding="UTF-8"?>
<svg id="b"
    xmlns="http://www.w3.org/2000/svg" viewBox="0 0 72 72">
    <defs>
        <style>.d{fill:none;}.e{fill-rule:evenodd;}</style>
    </defs>
    <g id="c">
        <rect y="62" width="72" height="10"/>
        <path class="e" d="M71.02,13.83L57.5.93C56.86.32,56.02,0,55.18,0c-.01,0-.02,0-.03,0-.82,0-1.64.3-2.27.89L15.49,36.55c-.63.6-.94,1.4-.93,2.19,0,.8.34,1.6.98,2.21l1.17,1.11L0,58h22.38l5.51-5.26,1.17,1.11c.64.61,1.48.93,2.32.93s1.67-.29,2.3-.89l37.39-35.66c.63-.6.94-1.4.93-2.19,0-.8-.34-1.6-.98-2.21ZM48.87,31.11l-9.49-9.05,15.78-15.06,9.49,9.05-15.78,15.06Z"/>
        <rect class="d" x="0" y="0" width="72" height="72"/>
    </g>
</svg>
