<svg width="72" height="72" viewBox="0 0 72 72" fill="none"
    xmlns="http://www.w3.org/2000/svg">
    <g clip-path="url(#clip0_57_2)">
        <path d="M63 53.68H9V64.48H63V53.68Z" fill="rgba(0,0,0,0)"/>
        <path fill-rule="evenodd" clip-rule="evenodd" d="M62.27 17.56L52.13 7.89C51.65 7.43 51.02 7.2 50.39 7.19H50.37C49.75 7.19 49.14 7.41 48.67 7.86L20.63 34.61C20.16 35.06 19.92 35.66 19.93 36.25C19.93 36.85 20.18 37.45 20.66 37.91L21.53 38.74L9 50.69H25.78L29.92 46.75L30.79 47.58C31.27 48.04 31.9 48.27 32.53 48.28C33.16 48.29 33.78 48.06 34.25 47.61L62.29 20.86C62.76 20.41 63 19.81 62.99 19.22C62.99 18.62 62.74 18.02 62.26 17.56H62.27ZM45.66 30.51L38.54 23.72L50.38 12.43L57.5 19.22L45.66 30.51Z" fill="black"/>
    </g>
    <defs>
        <clipPath id="clip0_57_2">
            <rect width="72" height="72" fill="white"/>
        </clipPath>
    </defs>
</svg>
