<?xml version="1.0" encoding="UTF-8"?>
<svg id="b"
    xmlns="http://www.w3.org/2000/svg" viewBox="0 0 72 72">
    <defs>
        <style>.d{fill:none;}</style>
    </defs>
    <g id="c">
        <path d="M29.78,48H9v-16.01c0-5.89,1.23-10.55,3.68-13.96s6.66-6.42,12.61-9.03l4.49,8.51c-3.66,1.72-6.19,3.43-7.59,5.14-1.4,1.7-2.18,3.72-2.34,6.05h9.94v19.31ZM54,48h-20.78v-16.01c0-5.89,1.23-10.55,3.68-13.96s6.66-6.42,12.61-9.03l4.49,8.51c-3.66,1.72-6.19,3.43-7.6,5.14s-2.18,3.72-2.34,6.05h9.94v19.31Z"/>
        <rect class="d" width="72" height="72"/>
    </g>
</svg>
