<svg width="72" height="72" viewBox="0 0 72 72" fill="none"
    xmlns="http://www.w3.org/2000/svg">
    <g clip-path="url(#clip0_57_31)">
        <path d="M30.09 44.49H13.05V31.36C13.05 26.53 14.05 22.71 16.07 19.92C18.09 17.13 21.53 14.66 26.41 12.51L30.09 19.49C27.09 20.9 25.01 22.31 23.86 23.7C22.71 25.1 22.07 26.75 21.94 28.66H30.09V44.49ZM49.95 44.49H32.91V31.36C32.91 26.53 33.91 22.71 35.93 19.92C37.95 17.13 41.39 14.66 46.27 12.51L49.95 19.49C46.95 20.9 44.87 22.31 43.72 23.7C42.57 25.09 41.93 26.75 41.8 28.66H49.95V44.49Z" fill="black"/>
    </g>
    <defs>
        <clipPath id="clip0_57_31">
            <rect width="72" height="72" fill="white"/>
        </clipPath>
    </defs>
</svg>
