<?xml version="1.0" encoding="UTF-8"?>
<svg id="b"
    xmlns="http://www.w3.org/2000/svg" viewBox="0 0 72 72">
    <defs>
        <style>.d{fill:none;}.e{fill-rule:evenodd;}</style>
    </defs>
    <g id="c">
        <rect x="21" y="32" width="30" height="4"/>
        <rect x="21" y="42" width="30" height="4"/>
        <rect x="21" y="52" width="30" height="4"/>
        <path class="e" d="M55,10h-5v-3h-7c0-3.87-3.13-7-7-7s-7,3.13-7,7h-7v3h-5c-4.42,0-8,3.58-8,8v46c0,4.42,3.58,8,8,8h38c4.42,0,8-3.58,8-8V18c0-4.42-3.58-8-8-8ZM57,64c0,1.1-.9,2-2,2H17c-1.1,0-2-.9-2-2V18c0-1.1.9-2,2-2h5v3h28v-3h5c1.1,0,2,.9,2,2v46Z"/>
        <rect class="d" width="72" height="72"/>
    </g>
</svg>
