<svg width="72" height="72" viewBox="0 0 72 72" fill="none"
    xmlns="http://www.w3.org/2000/svg">
    <g clip-path="url(#clip0_57_21)">
        <path d="M58.5 18.9V53.1H13.5V18.9H58.5ZM58.5 11.7H13.5C9.52005 11.7 6.30005 14.92 6.30005 18.9V53.1C6.30005 57.08 9.52005 60.3 13.5 60.3H58.5C62.48 60.3 65.7 57.08 65.7 53.1V18.9C65.7 14.92 62.48 11.7 58.5 11.7Z" fill="black"/>
        <path d="M50.4 35.1C53.3823 35.1 55.8 32.6823 55.8 29.7C55.8 26.7177 53.3823 24.3 50.4 24.3C47.4177 24.3 45 26.7177 45 29.7C45 32.6823 47.4177 35.1 50.4 35.1Z" fill="#231F20"/>
        <path d="M56.7 54H50.53L50.44 53.73H50.45L37.54 29.69C37.26 29.07 36.66 28.63 35.97 28.63C35.28 28.63 34.65 29.09 34.37 29.74L25.78 45.73L23.68 41.82C23.53 41.49 23.22 41.26 22.85 41.26C22.48 41.26 22.15 41.5 22.01 41.85L13.51 54.02C13.51 56.99 15.92 59.4 18.9 59.4H56.73C59.71 59.4 62.12 56.99 62.12 54.02L56.72 54H56.7Z" fill="#231F20"/>
    </g>
    <defs>
        <clipPath id="clip0_57_21">
            <rect width="72" height="72" fill="white"/>
        </clipPath>
    </defs>
</svg>
