<svg width="58" height="72" viewBox="0 0 58 72" fill="none" xmlns="http://www.w3.org/2000/svg">
<path fill-rule="evenodd" clip-rule="evenodd" d="M31.784 39.9024L23.7691 47.862L31.8637 55.9008L29.0036 58.7412L18.1286 47.9412L29.0036 37.1412L31.784 39.9024ZM34.9885 56.2392L43.4239 47.862L35.0682 39.564L37.5079 37.1412L48.3829 47.9412L37.5079 58.7412L34.9885 56.2392ZM14.8299 0H50.7754C54.7665 0 58 3.2328 58 7.1676V64.8324C58 68.7888 54.7556 72 50.7717 72H7.22825C3.23713 72 0 68.7708 0 64.8036V14.2452L14.8262 0H14.8299ZM17.0012 7.2L16.6387 16.5816H7.25V64.8H50.75V7.2H17.0012Z" fill="black"/>
</svg>
