<?xml version="1.0" encoding="UTF-8"?>
<svg id="b"
    xmlns="http://www.w3.org/2000/svg" viewBox="0 0 72 72.01">
    <defs>
        <style>.d{fill:none;}.e{fill-rule:evenodd;}</style>
    </defs>
    <g id="c">
        <rect y="64" width="40" height="8"/>
        <path d="M64,0l-2.12,10.69h-19.5l-10.22,47.31h-12.89L29.5,10.69H10L12.12,0h51.88Z"/>
        <path class="e" d="M63.68,58.01l7.13-7.13c1.56-1.56,1.56-4.09,0-5.66l-.04-.04c-1.56-1.56-4.09-1.56-5.66,0l-7.13,7.13-7.13-7.13c-1.56-1.56-4.09-1.56-5.66,0l-.04.04c-1.56,1.56-1.56,4.09,0,5.66l7.13,7.13-7.13,7.13c-1.56,1.56-1.56,4.09,0,5.66l.04.04c1.56,1.56,4.09,1.56,5.66,0l7.13-7.13,7.13,7.13c1.56,1.56,4.09,1.56,5.66,0l.04-.04c1.56-1.56,1.56-4.09,0-5.66l-7.13-7.13Z"/>
        <rect class="d" width="72" height="72"/>
    </g>
</svg>
