<svg width="72" height="72" viewBox="0 0 72 72" fill="none"
    xmlns="http://www.w3.org/2000/svg">
    <g clip-path="url(#clip0_57_39)">
        <path d="M39 56.99H9V62.99H39V56.99Z" fill="black"/>
        <path d="M57 9L55.41 17.02H40.79L33.12 52.49H23.45L31.12 17.02H16.5L18.09 9H57Z" fill="black"/>
        <path fill-rule="evenodd" clip-rule="evenodd" d="M56.7601 52.5L62.1101 47.15C63.2801 45.98 63.2801 44.08 62.1101 42.91L62.0801 42.88C60.9101 41.71 59.0101 41.71 57.8401 42.88L52.4901 48.23L47.1401 42.88C45.9701 41.71 44.0701 41.71 42.9001 42.88L42.8701 42.91C41.7001 44.08 41.7001 45.98 42.8701 47.15L48.2201 52.5L42.8701 57.85C41.7001 59.02 41.7001 60.92 42.8701 62.09L42.9001 62.12C44.0701 63.29 45.9701 63.29 47.1401 62.12L52.4901 56.77L57.8401 62.12C59.0101 63.29 60.9101 63.29 62.0801 62.12L62.1101 62.09C63.2801 60.92 63.2801 59.02 62.1101 57.85L56.7601 52.5Z" fill="black"/>
    </g>
    <defs>
        <clipPath id="clip0_57_39">
            <rect width="72" height="72" fill="white"/>
        </clipPath>
    </defs>
</svg>
