<?xml version="1.0" encoding="UTF-8"?>
<svg id="b"
    xmlns="http://www.w3.org/2000/svg" viewBox="0 0 72 72">
    <defs>
        <style>.d{fill:none;}</style>
    </defs>
    <g id="c">
        <path d="M72,36.81h-16.75v-.91c0-5.15,1.68-7.29,4.84-7.29,2.65,0,4.13,1.56,4.64,4.1h5.23c-.9-5.89-4.52-8.7-9.87-8.7-6.04,0-10.3,3.59-10.3,11.9v.91h-6.15c1.8-1.1,2.95-2.9,2.95-5.4,0-4.8-3.47-7.06-9.83-7.06h-9.01v12.46h-6.78l-4.33-12.46h-5.23l-4.33,12.46H0v4h5.69l-3.64,10.46h5.85l1.64-5.11h9.01l1.64,5.11h5.81l-3.64-10.46h5.39v10.46h9.87c7.1,0,9.83-3.55,9.83-7.72,0-1.04-.17-1.94-.48-2.73h2.85c.37,7.46,4.49,10.81,10.26,10.81s8.93-2.65,9.83-8.7h-5.19c-.58,2.73-1.91,4.1-4.64,4.1-2.92,0-4.57-1.97-4.8-6.21h16.72v-4ZM33.21,28.95h3.04c3.94,0,4.88,1.09,4.88,2.96s-1.29,3.08-4.29,3.08h-3.63v-6.04ZM14.02,32.07l1.52,4.73h-3.04l1.52-4.73ZM17.07,41.55h-6.08l.24-.74h5.61l.24.74ZM41.99,43.11c0,2.3-1.56,3.55-4.84,3.55h-3.94v-5.85h7.96c.54.55.82,1.3.82,2.3Z"/>
        <rect class="d" width="72" height="72"/>
    </g>
</svg>
