<svg width="72" height="72" viewBox="0 0 72 72" fill="none"
    xmlns="http://www.w3.org/2000/svg">
    <g clip-path="url(#clip0_57_45)">
        <path d="M64.8 37.01H51.4V36.28C51.4 32.16 52.74 30.45 55.27 30.45C57.39 30.45 58.58 31.7 58.98 33.73H63.16C62.44 29.02 59.54 26.77 55.27 26.77C50.43 26.77 47.03 29.64 47.03 36.29V37.02H42.11C43.55 36.14 44.47 34.7 44.47 32.7C44.47 28.86 41.69 27.05 36.61 27.05H29.4V37.01H23.97L20.5 27.05H16.32L12.85 37.01H7.19V40.21H11.74L8.83 48.57H13.51L14.82 44.48H22.03L23.34 48.57H27.99L25.08 40.21H29.39V48.57H37.28C42.96 48.57 45.14 45.73 45.14 42.39C45.14 41.56 45 40.84 44.76 40.2H47.04C47.33 46.17 50.63 48.85 55.25 48.85C59.87 48.85 62.4 46.73 63.11 41.89H58.96C58.49 44.07 57.43 45.17 55.25 45.17C52.92 45.17 51.6 43.59 51.41 40.21H64.79V37.01H64.8ZM33.77 30.72H36.2C39.35 30.72 40.1 31.59 40.1 33.09C40.1 34.59 39.07 35.55 36.67 35.55H33.77V30.71V30.72ZM18.42 33.22L19.64 37.01H17.21L18.43 33.22H18.42ZM20.85 40.8H15.98L16.17 40.2H20.65L20.84 40.8H20.85ZM40.79 42.05C40.79 43.89 39.54 44.89 36.92 44.89H33.77V40.21H40.14C40.58 40.65 40.8 41.25 40.8 42.05H40.79Z" fill="black"/>
    </g>
    <defs>
        <clipPath id="clip0_57_45">
            <rect width="72" height="72" fill="white"/>
        </clipPath>
    </defs>
</svg>
