<svg width="72" height="72" viewBox="0 0 72 72" fill="none"
    xmlns="http://www.w3.org/2000/svg">
    <g clip-path="url(#clip0_57_229)">
        <path d="M64.05 22.55C63.27 21.44 62 20.78 60.65 20.78H56.32L54.81 24.93H60.65L50.08 53.98H16.8799L18.6399 49.14H14.22L12.97 52.56C12.51 53.83 12.69 55.25 13.47 56.36C14.25 57.47 15.52 58.13 16.87 58.13H50.07C51.81 58.13 53.37 57.04 53.97 55.4L64.54 26.35C65 25.08 64.82 23.66 64.04 22.55H64.05Z" fill="black"/>
        <path d="M55.1201 18.02L44.5501 47.07H11.3501L21.9201 18.02H55.1201ZM55.1201 13.87H21.9201C20.1801 13.87 18.6201 14.96 18.0201 16.6L7.45005 45.65C6.99005 46.92 7.17005 48.34 7.95005 49.45C8.73005 50.56 10.0001 51.22 11.3501 51.22H44.5501C46.2901 51.22 47.8501 50.13 48.4501 48.49L59.0201 19.44C59.4801 18.17 59.3001 16.75 58.5201 15.64C57.7401 14.53 56.4701 13.87 55.1201 13.87Z" fill="black"/>
        <path d="M43.86 23.55L39.71 35.31H21.23L25.38 23.55H43.86ZM43.86 20.79H25.38C24.21 20.79 23.16 21.53 22.77 22.63L18.62 34.39C18.32 35.24 18.45 36.18 18.97 36.91C19.49 37.64 20.33 38.08 21.23 38.08H39.71C40.88 38.08 41.93 37.34 42.32 36.24L46.47 24.48C46.77 23.63 46.64 22.69 46.12 21.96C45.6 21.23 44.76 20.79 43.86 20.79Z" fill="black"/>
    </g>
    <defs>
        <clipPath id="clip0_57_229">
            <rect width="72" height="72" fill="white"/>
        </clipPath>
    </defs>
</svg>
